<?xml version="1.0" standalone="no"?><svg xmlns:xlink="http://www.w3.org/1999/xlink" xmlns="http://www.w3.org/2000/svg" viewBox="0 0 1000 625.0052716369065" preserveAspectRatio="xMaxYMax slice"><g transform="scale(0.8434619050430587)"><rect x="0" y="0" width="1185.6" height="741" fill="#ffffff"/><rect x="685.425" y="18.525" width="37.05" height="37.05" fill="#ffffff"/><rect x="1055.925" y="18.525" width="37.05" height="37.05" fill="#ffffff"/><circle cx="1083.71" cy="46.309999999999995" r="9.26" fill="#fcfcfc"/><rect x="389.025" y="92.625" width="37.05" height="37.05" fill="#ffffff"/><path d="M 907.72 92.63 A 37.05 37.05 0 0 1  944.77 129.68 L 907.72 92.63 A 37.05 37.05 0 0 0 944.77 129.68" fill="#f4f4f4"/><path d="M 685.43 203.77999999999997 A 37.05 37.05 0 0 1  722.4799999999999 166.73 L 685.43 203.77999999999997 A 37.05 37.05 0 0 0 722.4799999999999 166.73" fill="#f4f4f4"/><circle cx="481.645" cy="259.355" r="18.525" fill="#f1f1f1"/><circle cx="37.045" cy="333.445" r="18.525" fill="#fdfdfd"/><path d="M 166.73 351.97 A 37.05 37.05 0 0 1  203.77999999999997 314.92 L 166.73 351.97 A 37.05 37.05 0 0 0 203.77999999999997 314.92" fill="#f5f5f5"/><rect x="389.025" y="314.92499999999995" width="37.05" height="37.05" fill="#ffffff"/><path d="M 389.03 333.44 A 18.52 18.52 0 0 1  407.54999999999995 314.92 L 389.03 333.44 A 18.52 18.52 0 0 0 407.54999999999995 314.92" fill="#f5f5f5"/><rect x="463.12499999999994" y="314.92499999999995" width="37.05" height="37.05" fill="#ffffff"/><path d="M 166.73 463.12 A 37.05 37.05 0 0 1  203.77999999999997 500.17 L 166.73 463.12 A 37.05 37.05 0 0 0 203.77999999999997 500.17" fill="#fdfdfd"/><path d="M 685.43 500.17 A 37.05 37.05 0 0 1  722.4799999999999 463.12 L 685.43 500.17 A 37.05 37.05 0 0 0 722.4799999999999 463.12" fill="#f5f5f5"/><rect x="907.7249999999999" y="463.12499999999994" width="37.05" height="37.05" fill="#ffffff"/><rect x="1055.925" y="537.2249999999999" width="37.05" height="37.05" fill="#ffffff"/><path d="M 611.32 648.37 A 37.05 37.05 0 0 1  648.37 611.32 L 611.32 648.37 A 37.05 37.05 0 0 0 648.37 611.32" fill="#fbfbfb"/><rect x="92.625" y="685.425" width="37.05" height="37.05" fill="#ffffff"/><rect x="314.92499999999995" y="685.425" width="37.05" height="37.05" fill="#ffffff"/><path d="M 314.92 722.47 A 18.52 18.52 0 0 1  333.44 703.95 L 314.92 722.47 A 18.52 18.52 0 0 0 333.44 703.95" fill="#fdfdfd"/><circle cx="481.645" cy="703.9549999999999" r="18.525" fill="#fefefe"/><circle cx="778.055" cy="703.9549999999999" r="18.525" fill="#f7f7f7"/><path d="M 907.72 685.43 A 37.05 37.05 0 0 1  944.77 722.4799999999999 L 907.72 685.43 A 37.05 37.05 0 0 0 944.77 722.4799999999999" fill="#f4f4f4"/><rect x="981.8249999999999" y="685.425" width="37.05" height="37.05" fill="#ffffff"/><path d="M 981.83 703.95 A 18.52 18.52 0 0 1  1000.35 722.47 L 981.83 703.95 A 18.52 18.52 0 0 0 1000.35 722.47" fill="#fcfcfc"/><path d="M 1130.03 685.43 A 37.05 37.05 0 0 1  1167.08 722.4799999999999 L 1130.03 685.43 A 37.05 37.05 0 0 0 1167.08 722.4799999999999" fill="#f7f7f7"/></g></svg>